<mxfile host="app.diagrams.net" modified="2023-03-28T18:38:59.674Z" agent="Mozilla/5.0 (X11; Linux x86_64; rv:109.0) Gecko/20100101 Firefox/111.0" version="21.1.1" etag="isR4vt_2NL3DJ6mfxXHc" type="github">
  <diagram name="Page-1" id="9Ped7SSD-Q8QL7TtssdP">
    <mxGraphModel>
      <root>
        <mxCell id="0" />
        <mxCell id="1" parent="0" />
      </root>
    </mxGraphModel>
  </diagram>
</mxfile>
